<?xml version="1.0" encoding="utf-8"?>
<!-- Generator: Adobe Illustrator 23.0.2, SVG Export Plug-In . SVG Version: 6.00 Build 0)  -->
<svg version="1.1" id="Laag_1" xmlns="http://www.w3.org/2000/svg" xmlns:xlink="http://www.w3.org/1999/xlink" x="0px" y="0px"
	 viewBox="0 0 423.12 105.43" style="enable-background:new 0 0 423.12 105.43;" xml:space="preserve">
<style type="text/css">
	.st0{fill:#F5C500;}
</style>
<g>
	<g>
		<g>
			<path d="M283.44,12.83c-1.55,0.84-3.46,0.84-5.01,0c-3.47-1.89-7.44-2.97-11.66-2.97h-28.1v20.81h28.1
				c2.06,0,3.73,1.66,3.76,3.71h0v60.34h20.81V34.44h0.01c0-0.02,0-0.03,0-0.05c0.03-2.05,1.7-3.72,3.76-3.72h28.1V9.86h-28.1
				C290.88,9.86,286.91,10.94,283.44,12.83z"/>
			<path d="M398.54,9.86h-7.79h-20.32h-7.79c-13.53,0-24.54,10.99-24.57,24.51h0v60.34h20.81V34.44c0-2.08,1.69-3.77,3.77-3.77h7.79
				h20.32h7.79c2.08,0,3.77,1.69,3.77,3.77v5.97c0,2.08-1.69,3.77-3.77,3.77h-30.23v20.81h30.23c13.55,0,24.58-11.02,24.58-24.58
				v-5.97C423.12,20.89,412.09,9.86,398.54,9.86z"/>
			<path d="M202.76,62.44l-7.25-8.98l-12.27-15.37l-18.86-23.35l-0.73-0.81c-2.73-2.74-6.37-4.24-10.24-4.24
				c-7.98,0-14.46,6.49-14.46,14.46v5.8v64.78h20.81V42.14l7.25,8.98l12.27,15.37l18.86,23.35l0.74,0.82
				c2.73,2.73,6.36,4.23,10.23,4.23c7.98,0,14.46-6.49,14.46-14.46v-5.8V9.85h-20.81V62.44z"/>
		</g>
	</g>
	<g>
		<path class="st0" d="M1.6,65.51l-0.02,0.02c0.14,0.57,0.3,1.14,0.46,1.7l1.74-1.72h4.34L3.1,70.48c0.19,0.53,0.38,1.06,0.59,1.58
			l6.61-6.55h4.35L5,75.07c0.23,0.49,0.47,0.97,0.71,1.46l11.12-11.02h4.34L7.23,79.32c0.27,0.45,0.54,0.9,0.82,1.35l15.3-15.16
			h0.15c-1.72-3.92-2.7-8.24-2.7-12.79c0-17.59,14.31-31.91,31.91-31.91s31.91,14.31,31.91,31.91c0,4.55-0.97,8.87-2.7,12.79
			c-0.04,0.09-0.09,0.18-0.13,0.27l0.28-0.27h4.34l-39.91,39.55c0.66,0.08,1.32,0.15,1.98,0.2l40.11-39.75h4.35l-40.29,39.92
			c0.02,0,0.05,0,0.07,0c0.72,0,1.44-0.02,2.16-0.05l40.24-39.88h4.34l-39.83,39.47c0.87-0.11,1.74-0.26,2.6-0.42l39.42-39.06h2.22
			c1.03-4.1,1.58-8.38,1.58-12.79C105.43,23.65,81.78,0,52.72,0S0,23.65,0,52.72c0,4.41,0.55,8.69,1.58,12.79H1.6z"/>
		<path class="st0" d="M97.65,80.22L79.78,97.93C87.06,93.55,93.2,87.46,97.65,80.22z"/>
		<path class="st0" d="M56.5,84.38c-0.78,0.09-1.58,0.16-2.38,0.19l-18.25,18.09c0.55,0.18,1.09,0.36,1.65,0.53L56.5,84.38z"/>
		<path class="st0" d="M44.35,83.49c-0.56-0.15-1.12-0.32-1.68-0.5l-15.8,15.66c0.47,0.26,0.94,0.52,1.41,0.76L44.35,83.49z"/>
		<path class="st0" d="M34.08,78.57L19.18,93.34c0.4,0.33,0.8,0.65,1.2,0.97l14.99-14.85C34.93,79.18,34.5,78.87,34.08,78.57z"/>
		<path class="st0" d="M28.45,73.38c-0.33-0.39-0.65-0.8-0.96-1.21L12.63,86.9c0.33,0.39,0.67,0.78,1.01,1.16L28.45,73.38z"/>
		<path class="st0" d="M67.97,103.18c1.13-0.34,2.24-0.73,3.33-1.14l30.57-30.29c0.42-1.08,0.8-2.18,1.15-3.3L67.97,103.18z"/>
		<path class="st0" d="M65.51,81.92c-1.14,0.5-2.31,0.96-3.52,1.32L40.94,104.1c0.6,0.14,1.2,0.26,1.8,0.38L65.51,81.92z"/>
		<path class="st0" d="M49.87,84.49c-0.66-0.06-1.31-0.12-1.96-0.22l-16.72,16.57c0.5,0.23,1.01,0.44,1.53,0.65L49.87,84.49z"/>
		<path class="st0" d="M39.57,81.77c-0.49-0.23-0.98-0.47-1.46-0.72L22.88,96.14c0.43,0.3,0.86,0.59,1.3,0.87L39.57,81.77z"/>
		<path class="st0" d="M31.68,76.66c-0.38-0.34-0.75-0.7-1.12-1.05L15.77,90.26c0.37,0.36,0.73,0.72,1.11,1.07L31.68,76.66z"/>
		<path class="st0" d="M10.71,84.51l15-14.86c-0.28-0.45-0.54-0.91-0.8-1.37L9.78,83.26C10.08,83.68,10.39,84.09,10.71,84.51z"/>
	</g>
</g>
</svg>
